<svg width="213" height="196" viewBox="0 0 213 196" fill="none" xmlns="http://www.w3.org/2000/svg">
<path d="M115.826 88.2897C115.783 88.5164 115.603 88.7683 115.163 89.0263C114.726 89.2828 114.099 89.5024 113.312 89.685C111.741 90.0494 109.66 90.2399 107.49 90.3633C106.408 90.4248 105.312 90.469 104.255 90.511C103.199 90.553 102.179 90.5929 101.257 90.6443C100.337 90.6956 99.5027 90.7588 98.8191 90.8503C98.1551 90.9392 97.5657 91.0625 97.1809 91.2622C96.9293 91.393 96.7321 91.6075 96.5748 91.8407C96.4151 92.0775 96.275 92.3645 96.1502 92.6824C95.9007 93.3179 95.6884 94.1346 95.4994 95.0518C95.1211 96.8882 94.8211 99.2157 94.5267 101.489C94.2305 103.776 93.9402 106.007 93.582 107.691C93.4024 108.535 93.2116 109.212 93.0062 109.681C92.9033 109.916 92.8062 110.076 92.7228 110.173C92.6391 110.271 92.6 110.272 92.6118 110.27C92.6302 110.267 92.5974 110.282 92.4891 110.215C92.3811 110.148 92.2407 110.026 92.0705 109.829C91.731 109.438 91.3417 108.836 90.9168 108.067C90.07 106.534 89.1348 104.433 88.2241 102.278C87.3216 100.142 86.4317 97.9225 85.7055 96.2326C85.3405 95.3832 85.0079 94.6456 84.7245 94.0955C84.5833 93.8214 84.4489 93.5825 84.3238 93.396C84.2145 93.233 84.0628 93.031 83.8701 92.9229C83.6774 92.8148 83.429 92.7908 83.2356 92.7832C83.0154 92.7747 82.7485 92.7867 82.45 92.8107C81.8513 92.8588 81.0751 92.963 80.1913 93.0985C79.3055 93.2343 78.2992 93.4025 77.2377 93.5802C76.1748 93.758 75.0549 93.9458 73.936 94.1198C71.6929 94.4685 69.4758 94.7609 67.7517 94.8196C66.8869 94.8491 66.1736 94.8183 65.6537 94.7176C65.0935 94.609 64.9241 94.4503 64.8889 94.3801C64.8651 94.3326 64.8313 94.135 65.1148 93.6527C65.3763 93.208 65.8262 92.6613 66.4301 92.0332C67.6337 90.7812 69.3601 89.2967 71.1506 87.7891C72.9305 86.2904 74.7734 84.7692 76.173 83.4684C76.8724 82.8183 77.4764 82.2102 77.9118 81.676C78.1295 81.4088 78.3134 81.1486 78.4476 80.9031C78.5782 80.6641 78.6822 80.4009 78.6934 80.1338C78.7113 79.7061 78.5527 79.1589 78.3306 78.5875C78.1006 77.9956 77.7718 77.3023 77.3868 76.5529C76.617 75.0545 75.5962 73.2841 74.6299 71.5766C73.6579 69.8589 72.7423 68.2083 72.1608 66.9216C71.8685 66.2747 71.6748 65.7485 71.594 65.3663C71.5556 65.185 71.5512 65.0641 71.5579 64.9916C71.5747 64.9899 71.5962 64.9853 71.6237 64.9852C71.7388 64.9852 71.9044 65.0076 72.1259 65.0629C72.5677 65.1732 73.1507 65.3931 73.8456 65.7004C75.2313 66.3131 76.9788 67.2364 78.7849 68.2042C80.5824 69.1674 82.4356 70.1741 84.0069 70.9357C84.7928 71.3167 85.5192 71.641 86.1402 71.8706C86.744 72.0939 87.3074 72.2502 87.7451 72.2447C88.2323 72.2384 88.7801 71.9783 89.3116 71.6451C89.8647 71.2984 90.4878 70.8152 91.1484 70.2571C92.4689 69.1414 93.9953 67.6742 95.4809 66.2812C96.9778 64.8774 98.4312 63.5506 99.6366 62.6752C100.242 62.2357 100.755 61.9325 101.159 61.784C101.582 61.6286 101.743 61.6918 101.798 61.7337C101.906 61.817 102.04 62.0348 102.113 62.5123C102.183 62.9713 102.183 63.576 102.122 64.3004C101.999 65.7463 101.643 67.5673 101.223 69.4388C101.014 70.3717 100.791 71.3117 100.575 72.2182C100.359 73.1232 100.151 73.9966 99.9739 74.7908C99.7966 75.5842 99.6478 76.3078 99.5532 76.9127C99.4609 77.5025 99.4111 78.0315 99.4582 78.4096C99.4937 78.6942 99.6415 78.9406 99.8126 79.1431C99.9869 79.3493 100.216 79.5466 100.476 79.7356C100.996 80.1137 101.702 80.5041 102.509 80.9009C104.123 81.6947 106.242 82.5624 108.295 83.4456C110.366 84.3363 112.371 85.2437 113.816 86.1346C114.54 86.5812 115.092 87.005 115.439 87.3979C115.791 87.7961 115.866 88.0835 115.826 88.2897Z" stroke="#924DBF"/>
<path d="M176.021 16.2333C176.102 16.3531 176.148 16.5645 176.046 16.9467C175.945 17.3256 175.718 17.7942 175.374 18.3387C174.69 19.4242 173.617 20.7009 172.451 21.9947C171.87 22.639 171.27 23.2815 170.691 23.9021C170.113 24.5214 169.554 25.1202 169.057 25.67C168.561 26.2186 168.12 26.7274 167.78 27.168C167.452 27.5931 167.175 28.0071 167.062 28.356C166.986 28.5942 166.997 28.8462 167.041 29.0766C167.085 29.3111 167.17 29.561 167.28 29.8164C167.499 30.3268 167.842 30.9176 168.253 31.5484C169.076 32.8118 170.22 34.3102 171.334 35.7706C172.455 37.2415 173.545 38.6723 174.288 39.8294C174.66 40.4101 174.929 40.8978 175.073 41.2714C175.145 41.4585 175.176 41.5934 175.182 41.6826C175.184 41.6992 175.182 41.7126 175.182 41.7232C175.173 41.7259 175.163 41.731 175.15 41.7339C175.064 41.7536 174.926 41.763 174.724 41.7476C174.32 41.717 173.767 41.5964 173.093 41.3983C171.751 41.004 170.039 40.3365 168.305 39.6221C166.589 38.9155 164.826 38.1505 163.46 37.5977C162.772 37.3194 162.164 37.0865 161.689 36.9318C161.452 36.8547 161.237 36.7925 161.055 36.7557C160.939 36.7323 160.786 36.7075 160.634 36.719L160.483 36.7437C160.288 36.7978 160.118 36.9395 160.003 37.0445C159.868 37.1676 159.72 37.3281 159.563 37.5114C159.246 37.8792 158.861 38.3788 158.434 38.9546C158.005 39.5322 157.527 40.1967 157.022 40.8963C156.517 41.5971 155.985 42.335 155.446 43.0646C154.364 44.528 153.269 45.9406 152.324 46.9416C151.85 47.4442 151.432 47.8225 151.088 48.0522C150.716 48.301 150.565 48.2846 150.55 48.2803C150.544 48.2758 150.434 48.2073 150.333 47.8072C150.234 47.4177 150.181 46.8617 150.171 46.1657C150.151 44.7797 150.297 42.9657 150.467 41.0963C150.636 39.2406 150.828 37.3311 150.892 35.7975C150.924 35.0313 150.925 34.339 150.871 33.7824C150.844 33.5041 150.803 33.2453 150.739 33.0219C150.676 32.8054 150.581 32.5801 150.422 32.4054C150.175 32.135 149.76 31.9059 149.31 31.7053C148.841 31.4957 148.259 31.2857 147.615 31.0753C146.329 30.6549 144.746 30.2201 143.234 29.7925C141.711 29.3619 140.263 28.9394 139.211 28.5361C138.682 28.3331 138.283 28.1454 138.031 27.9793C137.966 27.9366 137.917 27.8996 137.882 27.8694C137.942 27.8169 138.031 27.7501 138.158 27.6743C138.465 27.4924 138.915 27.2918 139.482 27.0756C140.613 26.6449 142.126 26.1864 143.701 25.7191C145.267 25.2546 146.893 24.7821 148.22 24.3291C148.884 24.1025 149.485 23.8765 149.973 23.6552C150.444 23.4415 150.868 23.2067 151.128 22.9426C151.423 22.6432 151.592 22.1616 151.707 21.6705C151.828 21.1543 151.912 20.5223 151.974 19.83C152.098 18.4465 152.14 16.746 152.2 15.117C152.262 13.472 152.341 11.9016 152.533 10.7303C152.63 10.1416 152.75 9.69066 152.89 9.39076C153.039 9.07235 153.146 9.05738 153.148 9.05707C153.218 9.04835 153.39 9.07854 153.695 9.30478C153.985 9.51999 154.32 9.85847 154.692 10.3033C155.433 11.1905 156.253 12.4234 157.069 13.7258C157.476 14.3747 157.879 15.0358 158.267 15.6742C158.655 16.3112 159.028 16.9272 159.375 17.4805C159.722 18.033 160.047 18.5309 160.336 18.9315C160.616 19.3196 160.893 19.659 161.145 19.8574C161.347 20.0162 161.592 20.0775 161.814 20.0973C162.04 20.1174 162.29 20.0985 162.549 20.059C163.067 19.98 163.696 19.8025 164.381 19.573C165.751 19.1138 167.453 18.4111 169.118 17.7576C170.8 17.0974 172.448 16.4862 173.765 16.181C174.426 16.0279 174.969 15.9614 175.374 15.9885C175.786 16.016 175.952 16.1311 176.021 16.2333Z" stroke="#924DBF"/>
<path d="M189.346 60.1079C193.632 68.577 203.581 85.1462 209.085 83.6701C214.588 82.1939 198.219 67.3469 189.346 60.1079Z" stroke="#924DBF"/>
<path d="M91.5687 128.781C85.7128 147.677 75.7473 187.285 82.732 194.554C89.7167 201.823 91.5334 153.734 91.5687 128.781Z" stroke="#924DBF"/>
<path d="M44.3456 96.3992C31.026 97.8779 3.73083 102.412 1.10758 108.717C-1.51567 115.022 28.8399 103.132 44.3456 96.3992Z" stroke="#924DBF"/>
</svg>
